<?xml version="1.0" encoding="UTF-8" standalone="no"?>
<svg
   width="180.03625mm"
   height="47.709461mm"
   version="1.1"
   viewBox="0 0 180.03625 47.709461"
   id="svg1"
   xmlns="http://www.w3.org/2000/svg"
   xmlns:svg="http://www.w3.org/2000/svg">
  <defs
     id="defs1" />
  <g
     id="g1"
     transform="translate(-12.670359,-121.75229)">
    <path
       d="m 41.7101,142.07959 c -0.15548,0 -1.0492,-0.5131 -1.9861,-1.1402 -0.9369,-0.62713 -2.3527,-1.7036 -3.1462,-2.3922 -0.7935,-0.68858 -2.017,-1.9108 -2.7189,-2.7161 -0.75354,-0.86448 -1.5876,-2.0548 -2.0367,-2.9064 -0.41825,-0.79325 -0.88062,-1.9537 -1.0275,-2.5788 -0.17858,-0.76001 -0.23568,-1.4841 -0.17236,-2.186 0.0588,-0.65184 0.27658,-1.4382 0.57476,-2.0754 0.26404,-0.56425 0.80067,-1.339 1.1925,-1.7218 0.39183,-0.3828 1.1182,-0.88592 1.6141,-1.1183 0.67256,-0.31507 1.2351,-0.4373 2.2133,-0.48095 1.0505,-0.0469 1.5024,0.0131 2.2699,0.30114 0.67555,0.25355 1.2861,0.66893 2.0693,1.4077 0.61105,0.57643 1.1426,1.0481 1.1813,1.0481 0.0387,0 0.47631,-0.39326 0.97256,-0.87392 0.49625,-0.48065 1.341,-1.0893 1.8772,-1.3526 0.83068,-0.40785 1.169,-0.47866 2.2865,-0.47854 1.0773,1.1e-4 1.4778,0.078 2.242,0.43617 0.51174,0.23983 1.268,0.74717 1.6805,1.1274 0.41899,0.38621 0.97194,1.1421 1.2528,1.7125 0.37011,0.75181 0.52704,1.343 0.595,2.2416 0.06764,0.89437 0.01695,1.4811 -0.1897,2.196 -0.1551,0.53656 -0.57047,1.5289 -0.92304,2.2052 -0.35257,0.6763 -1.01,1.72 -1.461,2.3193 -0.45098,0.59933 -1.5839,1.819 -2.5175,2.7104 -0.93367,0.89143 -2.5666,2.2271 -3.6288,2.9681 -1.0622,0.74103 -2.0584,1.3473 -2.2139,1.3473 z"
       id="path19"
       style="fill:none;stroke:#000000;stroke-width:2;stroke-dasharray:none;stroke-opacity:1" />
    <path
       id="path5"
       d="m 124.422,167.65587 c -1.0693,0 -1.7256,-0.0697 -1.8526,-0.19674 -0.14855,-0.14856 -0.19674,-2.555 -0.19674,-9.8253 0,-8.5346 0.0293,-9.6578 0.25764,-9.8862 0.19486,-0.19485 0.60633,-0.25763 1.6887,-0.25763 0.89443,0 1.5048,0.0738 1.6278,0.19674 0.1082,0.10821 0.19674,0.40332 0.19674,0.6558 0,0.27524 0.0883,0.45907 0.22052,0.45907 0.12127,0 0.34787,-0.14074 0.50353,-0.31274 0.15567,-0.17201 0.6651,-0.47889 1.1321,-0.68195 0.53391,-0.23217 1.307,-0.39695 2.0828,-0.44397 0.83278,-0.0504 1.5787,0.0133 2.2953,0.1962 0.58387,0.14904 1.4573,0.508 1.9409,0.7977 0.48361,0.2897 1.1358,0.82184 1.4493,1.1825 0.3135,0.36066 0.77456,1.0616 1.0245,1.5575 0.24998,0.49595 0.5479,1.2978 0.66204,1.7818 0.1303,0.55254 0.17681,1.4678 0.12499,2.4592 -0.0556,1.0633 -0.20021,1.8872 -0.44277,2.5222 -0.19813,0.51868 -0.65268,1.313 -1.0101,1.7652 -0.35743,0.45219 -0.99763,1.0781 -1.4227,1.3909 -0.42502,0.3128 -1.1786,0.73097 -1.6745,0.92927 -0.70866,0.28337 -1.2528,0.36285 -2.5412,0.37125 -1.0535,0.007 -1.8446,-0.0719 -2.2133,-0.22046 -0.3156,-0.12712 -0.81403,-0.40787 -1.1076,-0.62389 -0.29359,-0.21601 -0.61814,-0.34063 -0.72124,-0.27691 -0.13519,0.0836 -0.16119,0.94854 -0.0933,3.1036 0.0665,2.1096 0.0399,3.042 -0.0903,3.1722 -0.1123,0.1123 -0.83226,0.18446 -1.8404,0.18446 z m 5.5011,-8.8637 c 0.65746,0.007 1.1385,-0.10322 1.7308,-0.39837 0.45116,-0.22483 0.98633,-0.63336 1.1893,-0.90785 0.20297,-0.27449 0.47541,-0.80071 0.60548,-1.1694 0.13007,-0.36867 0.23649,-1.0398 0.23649,-1.4914 0,-0.4516 -0.0902,-1.1248 -0.20039,-1.4959 -0.12063,-0.40618 -0.49958,-0.9753 -0.95192,-1.4296 -0.57314,-0.57563 -0.95469,-0.80353 -1.6075,-0.96013 -0.4834,-0.11597 -1.1183,-0.15613 -1.4587,-0.0923 -0.33152,0.0622 -0.86441,0.2473 -1.1842,0.41134 -0.31979,0.16404 -0.73882,0.47144 -0.93116,0.6831 -0.19234,0.21167 -0.48682,0.64307 -0.65439,0.95867 -0.22821,0.42981 -0.30453,0.9236 -0.30412,1.9674 4.4e-4,1.1257 0.0708,1.5257 0.36596,2.0809 0.20097,0.37801 0.60807,0.87238 0.90466,1.0986 0.29658,0.22622 0.72148,0.48404 0.94423,0.57294 0.22273,0.0889 0.81471,0.16629 1.3155,0.17201 z m 11.541,8.8278 c -0.99663,0.0253 -1.8635,-0.006 -1.9264,-0.0683 -0.0629,-0.0629 -0.11436,-4.5261 -0.11436,-9.9183 0,-9.6392 0.006,-9.8069 0.3282,-9.9796 0.18865,-0.10097 1.0078,-0.1557 1.9264,-0.12874 1.5679,0.0461 1.5991,0.0547 1.6472,0.4568 0.0269,0.22543 0.0789,0.49937 0.11549,0.60876 0.0435,0.13019 0.35161,0.007 0.89219,-0.3568 0.45415,-0.30562 1.2242,-0.64484 1.7111,-0.75382 0.49178,-0.11005 1.4638,-0.16465 2.1864,-0.12282 1.0094,0.0584 1.5472,0.19051 2.3993,0.58925 0.66151,0.30955 1.4063,0.83039 1.8729,1.3097 0.42605,0.43768 0.9749,1.2054 1.2197,1.706 0.2448,0.5006 0.51964,1.2337 0.61081,1.6292 0.0912,0.39544 0.16755,1.3609 0.16976,2.1455 0.002,0.78457 -0.0778,1.8175 -0.17777,2.2953 -0.1,0.47785 -0.40485,1.2921 -0.6775,1.8094 -0.27266,0.51732 -0.85683,1.2783 -1.2982,1.6912 -0.44137,0.4129 -1.2928,0.98005 -1.8922,1.2605 -0.84327,0.39462 -1.384,0.52698 -2.3907,0.58526 -0.71556,0.0414 -1.6933,-0.0125 -2.1728,-0.11978 -0.47949,-0.10731 -1.1806,-0.41882 -1.5581,-0.69227 -0.386,-0.27962 -0.74836,-0.43514 -0.82811,-0.3554 -0.078,0.078 -0.16191,1.5416 -0.18651,3.2524 l -0.0447,3.1106 z m 5.3999,-8.8246 c 0.35023,0.004 0.92629,-0.0795 1.2801,-0.18555 0.35384,-0.10601 0.92962,-0.47902 1.2795,-0.8289 0.38024,-0.38024 0.74747,-0.97129 0.91285,-1.4692 0.19098,-0.57496 0.25166,-1.1451 0.19588,-1.8401 -0.0445,-0.55388 -0.23102,-1.3 -0.41456,-1.658 -0.18356,-0.35804 -0.50792,-0.81345 -0.72082,-1.012 -0.21289,-0.19859 -0.66036,-0.47525 -0.99439,-0.61481 -0.33402,-0.13956 -1.0228,-0.25375 -1.5305,-0.25375 -0.5077,0 -1.171,0.11758 -1.4738,0.26128 -0.30284,0.14371 -0.74506,0.45573 -0.98272,0.69338 -0.23765,0.23766 -0.54781,0.65497 -0.68923,0.92736 -0.14143,0.27239 -0.29122,1.0206 -0.33288,1.6627 -0.0532,0.81991 0.004,1.4093 0.19407,1.9798 0.14889,0.44829 0.5161,1.051 0.81941,1.345 0.3023,0.29299 0.83553,0.63463 1.185,0.75918 0.34945,0.12456 0.9219,0.22971 1.2721,0.23366 z m -49.494,3.6009 c -0.90173,-0.004 -2.0258,-0.1124 -2.4979,-0.23954 -0.4721,-0.12714 -1.2406,-0.42486 -1.7078,-0.66159 -0.46718,-0.23674 -1.2359,-0.81688 -1.7082,-1.2892 -0.47233,-0.47233 -1.0872,-1.3112 -1.3663,-1.8642 -0.27913,-0.55296 -0.50752,-1.1566 -0.50752,-1.3415 0,-0.19284 0.15724,-0.40284 0.36889,-0.49269 0.20289,-0.0861 0.9714,-0.30589 1.7078,-0.48834 0.7364,-0.18246 1.4545,-0.33173 1.5958,-0.33173 0.14238,0 0.43602,0.35361 0.65894,0.79352 0.22116,0.43644 0.66306,1.0226 0.98198,1.3027 0.31893,0.28002 0.85856,0.58652 1.1992,0.68111 0.34061,0.0946 1.062,0.17077 1.603,0.1693 0.60205,-0.002 1.2381,-0.11953 1.6395,-0.30384 0.36069,-0.16563 0.79147,-0.45372 0.95728,-0.64021 0.16581,-0.18649 0.35807,-0.59001 0.42725,-0.89672 0.0737,-0.32693 0.0507,-0.78742 -0.0556,-1.113 -0.0998,-0.30559 -0.41253,-0.71074 -0.69545,-0.90093 -0.28277,-0.19009 -1.6108,-0.66578 -2.9511,-1.0571 -1.3403,-0.39132 -2.8874,-0.9113 -3.4379,-1.1555 -0.5505,-0.2442 -1.3044,-0.7183 -1.6755,-1.0535 -0.37101,-0.33518 -0.87627,-1.0271 -1.1228,-1.5376 -0.37746,-0.78165 -0.44936,-1.1482 -0.45542,-2.3218 -0.005,-0.96276 0.08953,-1.6723 0.30568,-2.2953 0.23038,-0.664 0.57604,-1.1648 1.3111,-1.8998 0.7203,-0.72016 1.2721,-1.1044 1.982,-1.3799 0.73655,-0.28588 1.4219,-0.39996 2.7279,-0.45403 0.96641,-0.04 2.1232,0.009 2.5941,0.11007 0.46747,0.10026 1.2688,0.37986 1.7808,0.62134 0.52701,0.24858 1.322,0.83502 1.8326,1.3518 0.49595,0.502 1.0754,1.2682 1.2877,1.7027 0.2123,0.4345 0.42362,1.0705 0.46961,1.4133 0.0568,0.42336 0.0118,0.66892 -0.14008,0.76545 -0.12302,0.0782 -0.96145,0.22715 -1.8632,0.33108 -1.3285,0.15312 -1.7052,0.14785 -1.9857,-0.0278 -0.1904,-0.11921 -0.38956,-0.43368 -0.44258,-0.69881 -0.053,-0.26514 -0.32452,-0.71018 -0.60332,-0.98897 -0.2788,-0.2788 -0.78052,-0.5829 -1.1149,-0.67578 -0.33442,-0.0929 -0.96085,-0.16928 -1.3921,-0.16979 -0.43122,-5e-4 -1.0275,0.10082 -1.3251,0.22515 -0.29756,0.12433 -0.70097,0.42939 -0.89646,0.67791 -0.22364,0.28432 -0.35543,0.68395 -0.35543,1.0778 0,0.34429 0.08137,0.80458 0.18083,1.0229 0.09946,0.21829 0.45272,0.5497 0.78503,0.73646 0.33231,0.18677 1.1916,0.49607 1.9095,0.68734 0.71793,0.19126 1.9803,0.56782 2.8053,0.83679 0.83061,0.27079 1.888,0.76007 2.3694,1.0964 0.47814,0.33404 1.1121,0.92556 1.4087,1.3145 0.29663,0.38892 0.65963,1.1209 0.80665,1.6266 0.17978,0.61841 0.2417,1.2776 0.18909,2.0129 -0.0489,0.68303 -0.23546,1.4368 -0.49714,2.0084 -0.2304,0.50326 -0.71779,1.2393 -1.0831,1.6356 -0.36531,0.3963 -1.0239,0.91632 -1.4635,1.1556 -0.4396,0.23925 -1.2724,0.54655 -1.8507,0.68286 -0.59071,0.13924 -1.7699,0.24418 -2.691,0.23948 z m 15.021,-0.0521 c -0.77352,0.0401 -1.4995,-0.0183 -1.9055,-0.15334 -0.36069,-0.11994 -0.87713,-0.33507 -1.1476,-0.47805 -0.27051,-0.14298 -0.76069,-0.54272 -1.0893,-0.8883 -0.32861,-0.34558 -0.74609,-0.92577 -0.92779,-1.2893 -0.18169,-0.36356 -0.41085,-1.0964 -0.50923,-1.6286 -0.10115,-0.54715 -0.17888,-2.9087 -0.17888,-5.4344 0,-3.8421 0.036,-4.5028 0.25764,-4.7244 0.1975,-0.1975 0.6157,-0.25763 1.7917,-0.25763 1.176,0 1.5942,0.0601 1.7917,0.25763 0.22156,0.22157 0.25767,0.88155 0.25789,4.7136 2.3e-4,3.9183 0.0348,4.5238 0.28692,5.0181 0.15766,0.3092 0.48648,0.70865 0.73072,0.88767 0.26389,0.19344 0.79606,0.35311 1.3116,0.39355 0.68909,0.054 1.0193,-0.0129 1.6053,-0.32536 0.48712,-0.25975 0.86814,-0.62779 1.1215,-1.0833 0.37194,-0.66871 0.38523,-0.82631 0.4327,-5.132 0.0388,-3.5273 0.0949,-4.4712 0.27208,-4.5835 0.12271,-0.0777 0.86866,-0.14248 1.6577,-0.14386 1.218,-0.002 1.4841,0.047 1.7625,0.32539 0.31726,0.31726 0.32783,0.54475 0.3254,7.0089 -0.001,3.6745 -0.0567,6.7623 -0.12297,6.8617 -0.0663,0.0995 -0.8209,0.219 -1.678,0.26576 -0.85663,0.0467 -1.6498,0.0515 -1.7625,0.0105 -0.11272,-0.041 -0.20494,-0.28531 -0.20494,-0.543 0,-0.25768 -0.0675,-0.51024 -0.15007,-0.56125 -0.0825,-0.051 -0.37161,0.0937 -0.64238,0.3215 -0.27077,0.22784 -0.83978,0.56795 -1.2645,0.75582 -0.48572,0.21485 -1.2357,0.36557 -2.0218,0.40631 z m 51.296,0.0591 c -1.0182,-0.002 -1.6907,-0.10354 -2.4967,-0.37823 -0.60671,-0.20677 -1.5196,-0.66282 -2.0287,-1.0134 -0.5091,-0.35063 -1.2059,-1.0096 -1.5484,-1.4643 -0.3425,-0.4547 -0.78941,-1.2325 -0.99309,-1.7285 -0.31363,-0.76364 -0.37206,-1.2156 -0.38159,-2.9511 -0.009,-1.573 0.0573,-2.2459 0.2837,-2.8946 0.16222,-0.46491 0.58176,-1.2458 0.93231,-1.7353 0.35054,-0.48953 1.031,-1.1612 1.5122,-1.4926 0.4812,-0.3314 1.279,-0.75982 1.7729,-0.95204 0.63627,-0.24762 1.4034,-0.37241 2.632,-0.42816 1.3326,-0.0605 1.9589,-0.0138 2.7052,0.2016 0.53411,0.15417 1.3215,0.46991 1.7497,0.70164 0.4282,0.23173 1.1758,0.83786 1.6614,1.347 0.4856,0.50909 1.0658,1.2905 1.2894,1.7365 0.22355,0.44599 0.49992,1.2075 0.61414,1.6921 0.12895,0.54719 0.17709,1.4657 0.12702,2.423 -0.0708,1.3538 -0.15339,1.689 -0.67749,2.7494 -0.4187,0.84718 -0.8863,1.4756 -1.5666,2.1055 -0.53337,0.4938 -1.3083,1.0617 -1.722,1.262 -0.41374,0.20029 -1.1392,0.46716 -1.612,0.59305 -0.47288,0.12589 -1.4869,0.22786 -2.2534,0.2266 z m 0,-3.6052 c 0.40578,0.001 0.996,-0.0692 1.3116,-0.15698 0.3156,-0.0878 0.84386,-0.38243 1.1739,-0.65469 0.33006,-0.27227 0.75978,-0.82489 0.95495,-1.2281 0.24803,-0.51233 0.3567,-1.0512 0.36096,-1.7899 0.004,-0.78766 -0.0979,-1.284 -0.40231,-1.9489 -0.23386,-0.51084 -0.64458,-1.0676 -0.96104,-1.3028 -0.30396,-0.22588 -0.80344,-0.49466 -1.11,-0.59728 -0.30652,-0.10263 -0.89674,-0.18498 -1.3116,-0.18299 -0.41487,0.002 -1.05,0.13795 -1.4115,0.30216 -0.3615,0.16421 -0.89319,0.56732 -1.1816,0.89582 -0.28841,0.32849 -0.63822,0.98057 -0.77735,1.4491 -0.13913,0.46853 -0.25296,1.0464 -0.25296,1.2842 0,0.23779 0.11383,0.81566 0.25296,1.2842 0.13913,0.46854 0.48894,1.1206 0.77735,1.4491 0.28842,0.32849 0.82014,0.73161 1.1816,0.89581 0.36147,0.16422 0.98921,0.29978 1.395,0.30126 z m 26.443,3.5448 c -1.0675,0.0446 -1.8235,-0.006 -2.26,-0.15156 -0.36069,-0.12024 -0.87713,-0.33509 -1.1476,-0.47745 -0.27051,-0.14237 -0.68631,-0.46833 -0.924,-0.72435 -0.23768,-0.25603 -0.56967,-0.72372 -0.73777,-1.0393 -0.2836,-0.53245 -0.30903,-1.1277 -0.3528,-8.2552 -0.0347,-5.6479 0.003,-7.7421 0.14304,-7.9106 0.14046,-0.16925 0.63367,-0.22919 1.8858,-0.22919 1.5086,0 1.7144,0.0349 1.8654,0.31712 0.0934,0.17442 0.16972,1.0598 0.16972,1.9674 v 1.6503 h 1.7977 c 1.6095,0 1.8154,0.0332 1.9674,0.31712 0.0934,0.17442 0.16972,0.80638 0.16972,1.4044 0,0.59797 -0.0764,1.2299 -0.16972,1.4044 -0.15087,0.2819 -0.35658,0.31712 -1.8526,0.31712 -1.0903,0 -1.7522,0.0693 -1.8797,0.19674 -0.13871,0.13871 -0.19674,1.0832 -0.19674,3.2023 0,2.1814 0.0619,3.1537 0.22576,3.5459 0.14148,0.3386 0.41972,0.62066 0.7453,0.75551 0.34764,0.144 0.86885,0.18258 1.5753,0.11661 0.92726,-0.0866 1.0761,-0.0608 1.2221,0.21214 0.0915,0.1709 0.1663,0.86722 0.1663,1.5474 0,1.1336 -0.0337,1.2587 -0.40424,1.5015 -0.27904,0.18284 -0.90108,0.28564 -2.0084,0.33193 z m -14.392,-0.12634 c -0.36069,-0.0134 -1.0616,-0.0678 -1.5575,-0.12073 l -0.90173,-0.0962 -0.0428,-7.0309 c -0.0307,-5.0544 0.009,-7.0939 0.14304,-7.2548 0.13018,-0.15685 0.60021,-0.22387 1.5701,-0.22387 0.76136,0 1.527,0.0764 1.7014,0.16972 0.23167,0.12398 0.31712,0.34488 0.31712,0.81975 0,0.35752 0.0609,0.65003 0.13537,0.65003 0.0745,0 0.31423,-0.19174 0.53284,-0.4261 0.21861,-0.23436 0.76349,-0.61238 1.2108,-0.84006 0.60228,-0.30652 1.1643,-0.43584 2.1655,-0.4983 1.3045,-0.0814 1.3583,-0.0706 1.5281,0.30721 0.11534,0.2566 0.13182,0.87194 0.0478,1.7852 l -0.1282,1.3936 -1.362,0.11289 c -0.8634,0.0716 -1.6303,0.24276 -2.0948,0.46765 -0.40305,0.19512 -0.90802,0.58698 -1.1221,0.87081 -0.21413,0.28383 -0.46993,0.81117 -0.56846,1.1719 -0.10635,0.38932 -0.1795,2.2636 -0.18005,4.6125 l -6.2e-4,3.9567 -0.36889,0.0988 c -0.20288,0.0543 -0.66399,0.0878 -1.0247,0.0744 z m -106.12,-0.17374 c -4.2764,0.0339 -5.4728,-0.002 -5.5349,-0.16394 -0.04357,-0.11394 -0.06008,-4.6707 -0.03669,-10.126 l 0.04253,-9.919 h 4.0988 l 0.08197,8.1975 0.08197,8.1975 6.722,0.164 v 3.6069 z m 9.7098,0.003 c -0.99663,0.0254 -1.8635,-0.006 -1.9264,-0.0683 -0.0629,-0.0629 -0.11437,-3.3035 -0.11437,-7.2013 0,-6.3112 0.02838,-7.0979 0.25934,-7.1865 0.14263,-0.0547 0.94515,-0.0995 1.7834,-0.0995 1.088,0 1.5772,0.0641 1.7098,0.22388 0.13357,0.16094 0.17378,2.2004 0.14304,7.2548 l -0.04276,7.0309 z m 6.3899,0.0359 c -1.208,0 -1.7198,-0.0617 -1.8539,-0.22328 -0.13432,-0.16185 -0.17368,-2.9476 -0.14303,-10.124 l 0.04226,-9.9006 1.8464,-0.0464 1.8465,-0.0463 0.16194,0.42594 c 0.09989,0.26274 0.16194,4.0842 0.16194,9.9736 0,7.2073 -0.04821,9.5958 -0.19674,9.7444 -0.12725,0.12724 -0.78614,0.19674 -1.8654,0.19674 z m -6.5286,-15.904 c -0.38155,-3.4e-4 -0.90374,-0.14157 -1.2069,-0.32639 -0.29388,-0.17919 -0.68094,-0.56625 -0.86012,-0.86013 -0.17918,-0.29389 -0.32606,-0.82074 -0.3264,-1.1708 -3.47e-4,-0.36102 0.14814,-0.87713 0.34312,-1.1926 0.18906,-0.30589 0.55428,-0.66504 0.81161,-0.79811 0.25734,-0.13307 0.7851,-0.24167 1.1728,-0.24134 0.4092,3.6e-4 0.92473,0.13464 1.2289,0.32008 0.28816,0.1757 0.64525,0.50462 0.79352,0.73091 0.14828,0.22631 0.3037,0.69094 0.3454,1.0325 0.04951,0.40561 -0.02671,0.81899 -0.2197,1.1916 -0.16252,0.3138 -0.54618,0.73802 -0.85258,0.94271 -0.35379,0.23635 -0.80252,0.37193 -1.2296,0.37154 z"
       style="fill:#000000;fill-opacity:1;stroke:#000000;stroke-width:0;stroke-dasharray:none;stroke-opacity:1" />
    <path
       d="m 21.622,168.46 c -0.81155,-0.008 -2.0485,-0.11739 -2.7488,-0.244 -0.7003,-0.12661 -1.8666,-0.45899 -2.5917,-0.73863 -0.83466,-0.32188 -1.5556,-0.73403 -1.9648,-1.1233 -0.54838,-0.52166 -0.64634,-0.71722 -0.64634,-1.2902 0,-0.37145 0.14091,-1.3973 0.31313,-2.2797 0.17222,-0.8824 0.54855,-2.3421 0.83627,-3.2438 0.28773,-0.90173 0.95235,-2.5413 1.4769,-3.6435 0.52459,-1.1022 1.3103,-2.5356 1.7459,-3.1854 0.43568,-0.64983 1.3455,-1.7714 2.0218,-2.4924 0.6763,-0.72099 1.8198,-1.7513 2.5412,-2.2895 0.72138,-0.53821 2.0494,-1.3368 2.9511,-1.7745 0.90173,-0.43778 2.2146,-0.94144 2.9174,-1.1192 0.70287,-0.17781 2.0678,-0.40372 3.0331,-0.50202 0.96533,-0.0983 2.3085,-0.13043 2.9848,-0.0714 0.6763,0.0591 1.744,0.22069 2.3726,0.35925 0.62866,0.13857 1.4478,0.38259 1.8203,0.54227 0.37252,0.15969 0.93819,0.51939 1.257,0.79934 0.31885,0.27996 0.69859,0.7595 0.84386,1.0656 0.14527,0.30614 0.26413,0.86742 0.26413,1.2473 0,0.39704 -0.14583,0.95014 -0.34301,1.301 -0.18865,0.33567 -0.64146,0.80382 -1.0062,1.0404 -0.36478,0.23652 -0.99922,0.48043 -1.4099,0.54201 -0.41065,0.0616 -1.5256,0.0276 -2.4777,-0.0755 -0.95209,-0.10313 -2.1737,-0.18324 -2.7148,-0.17802 -0.54104,0.005 -1.2419,0.0975 -1.5575,0.20518 -0.39688,0.13534 -0.59014,0.31065 -0.62674,0.56852 -0.04297,0.30284 0.08157,0.43232 0.66342,0.6897 0.39398,0.17427 1.7458,0.50821 3.004,0.74207 1.3272,0.24668 2.9171,0.42973 3.7867,0.43598 1.0121,0.007 1.7843,-0.0827 2.3773,-0.27699 0.48306,-0.15827 1.2841,-0.49141 1.78,-0.74032 0.4959,-0.24891 1.5597,-0.92108 2.364,-1.4937 0.8043,-0.57262 2.7347,-2.2692 4.2899,-3.77 1.9651,-1.8965 3.0127,-2.79 3.4344,-2.9291 0.33372,-0.11014 0.95762,-0.16653 1.3865,-0.12533 0.42888,0.0412 1.0014,0.23275 1.2723,0.42567 0.27092,0.19291 0.61235,0.60313 0.75872,0.91159 0.14637,0.30846 0.26608,0.8817 0.26601,1.2738 -8e-5,0.44315 -0.17648,1.0853 -0.4661,1.6967 -0.25628,0.54103 -0.96646,1.7215 -1.5782,2.6232 -0.61171,0.90173 -1.7191,2.3773 -2.461,3.279 -0.7419,0.9017 -2.0246,2.2824 -2.8507,3.0682 -0.82606,0.78581 -2.1765,1.8732 -3.001,2.4163 -0.82447,0.54315 -2.0943,1.2171 -2.8218,1.4977 -0.72752,0.28055 -1.8041,0.61216 -2.3924,0.73689 -0.77959,0.16527 -2.4733,0.22755 -6.2454,0.22962 -4.2272,0.002 -5.3351,0.0502 -6.0454,0.26114 -0.57696,0.17134 -1.1284,0.50022 -1.6381,0.97698 -0.42258,0.39527 -0.92762,1.0722 -1.1223,1.5042 -0.19468,0.432 -0.43394,1.1029 -0.53168,1.4909 -0.09774,0.38799 -0.31657,0.84431 -0.48631,1.014 -0.16974,0.16969 -0.59006,0.38677 -0.93407,0.48229 -0.344,0.0955 -1.2895,0.16747 -2.101,0.15989 z"
       id="path1"
       style="fill:none;stroke:#000000;stroke-width:2;stroke-dasharray:none;stroke-opacity:1" />
  </g>
</svg>
